<?xml version="1.0" encoding="utf-8"?>
<!-- Generator: Adobe Illustrator 15.1.0, SVG Export Plug-In . SVG Version: 6.00 Build 0)  -->
<!DOCTYPE svg PUBLIC "-//W3C//DTD SVG 1.1//EN" "http://www.w3.org/Graphics/SVG/1.1/DTD/svg11.dtd">
<svg version="1.1" id="Layer_1" xmlns="http://www.w3.org/2000/svg" xmlns:xlink="http://www.w3.org/1999/xlink" x="0px" y="0px"
	 width="100px" height="60px" viewBox="0 0 100 60" enable-background="new 0 0 100 60" xml:space="preserve">
<g>
	<rect x="9.001" y="4.667" fill="#161615" width="26.5" height="1"/>
	<rect x="64.5" y="4.667" fill="#161615" width="24.667" height="1"/>
	<g>
		<circle fill="#161615" cx="1.999" cy="30" r="1.999"/>
		<circle fill="#161615" cx="98.001" cy="30" r="1.999"/>
	</g>
	<g>
		<path fill="#161615" d="M39.546,0v3.757l1-3.757h1.357l-1.357,4.643L42.06,10h-1.328l-1.186-4.371V10h-1.285V0H39.546z"/>
		<path fill="#161615" d="M45.163,0l1.229,4.971V0h1.286v10h-1.515l-1.285-5.372V10h-1.286V0H45.163z"/>
		<path fill="#161615" d="M49.453,0.857C49.453,0.4,49.853,0,50.311,0h1.942c0.486,0,0.857,0.4,0.857,0.857v8.3
			c0,0.457-0.386,0.843-0.857,0.843h-1.942c-0.458,0-0.857-0.386-0.857-0.843V0.857z M51.825,1.286h-1.086v7.429h1.086V1.286z"/>
		<path fill="#161615" d="M55.94,0l0.715,7.014L57.513,0h1.328l0.857,6.985L60.412,0h1.329l-1.072,10h-1.942l-0.543-4.571L57.626,10
			h-1.942L54.612,0H55.94z"/>
	</g>
	<g>
		<path fill="#161615" d="M12.933,15.834l2.023,19.874l2.428-19.874h3.765l2.428,19.793l2.024-19.793h3.764l-3.035,28.332h-5.505
			l-1.538-12.951l-1.578,12.951h-5.505L9.167,15.834H12.933z"/>
		<path fill="#161615" d="M37.313,19.477h-3.238v-3.643h10.119v3.643h-3.238v24.689h-3.643V19.477z"/>
		<path fill="#161615" d="M55.624,40.525v-3.239h3.643v3.239v3.641H48.904V31.133c0-1.295,1.052-2.428,2.429-2.428h4.291v-9.229
			h-3.077v4.695h-3.643v-5.951c0-1.375,1.052-2.387,2.429-2.387h5.505c1.457,0,2.429,1.012,2.429,2.428v11.697
			c0,1.216-1.012,2.389-2.429,2.389h-4.291v8.178H55.624z"/>
		<path fill="#161615" d="M70.696,24.334v-4.857H67.62v21.049h3.076v-6.518h-1.215v-3.643h4.857v11.413
			c0,1.296-1.094,2.388-2.43,2.388h-5.504c-1.295,0-2.429-1.092-2.429-2.388V18.262c0-1.295,1.134-2.428,2.429-2.428h5.504
			c1.377,0,2.43,1.133,2.43,2.428v6.072H70.696z"/>
		<path fill="#161615" d="M82.286,19.477h-3.238v-3.643h10.119v3.643h-3.238v24.689h-3.643V19.477z"/>
	</g>
	<g>
		<path fill="#161615" d="M49.008,60v-5.4l-1.058,3.258h-1.041L45.937,54.6V60h-1.328V50h1.285l1.529,5l1.585-5h1.286v10H49.008z"/>
		<path fill="#161615" d="M55.392,60h-3.312V50h3.213v1.286h-1.928v2.757h1.357v1.285h-1.357v3.387h2.027V60z"/>
	</g>
	<g>
		<rect x="9.001" y="54.333" fill="#161615" width="33.5" height="1.001"/>
		<rect x="57.501" y="54.333" fill="#161615" width="31.666" height="1.001"/>
	</g>
</g>
</svg>
